<svg id="Layer_1" data-name="Layer 1" xmlns="http://www.w3.org/2000/svg" viewBox="0 0 64 64"><defs><style>.cls-1{fill:#dfe8f4;}.cls-2{fill:#ccd8e5;}.cls-3{fill:#0795ff;}.cls-4{fill:#156cdd;}</style></defs><title>medical, medicine, healthcare, health, pills</title><path class="cls-1" d="M34.74,12.59a15.66,15.66,0,1,1-22.15,0A15.66,15.66,0,0,1,34.74,12.59Z"/><path class="cls-2" d="M20,38.89A15.64,15.64,0,0,0,38.89,20,20.34,20.34,0,0,0,20,38.89Z"/><path class="cls-2" d="M33.37,36A15.86,15.86,0,0,0,36,33.37l-22-22a15,15,0,0,0-2.6,2.6Z"/><circle class="cls-3" cx="40.33" cy="40.33" r="15.67" transform="translate(-16.64 43.01) rotate(-47.69)"/><path class="cls-4" d="M55.88,42.17A16.09,16.09,0,0,0,56,40.33a15.77,15.77,0,0,0-.12-1.83H24.78a15.78,15.78,0,0,0-.11,1.83,16.08,16.08,0,0,0,.11,1.84Z"/></svg>